<svg xmlns="http://www.w3.org/2000/svg" viewBox="0 0 2805.33 3572.95"><defs><style>.cls-1{fill:#26496b;}.cls-2{fill:#26486b;stroke:#26486b;stroke-miterlimit:10;stroke-width:40px;}</style></defs><g id="Layer_2" data-name="Layer 2"><g id="Layer_1-2" data-name="Layer 1"><path class="cls-1" d="M2.21,1639.61C2.18,1210.72,7.05,781.75.06,353-3.28,148.18,142.91-2.48,353.58,0c446,5.32,892.07,1.17,1338.12,1.83,177.61.27,302.43,90.77,338.22,244.1,6.48,27.79,7.59,57.29,7.71,86,.68,170.21,1.69,340.45-.6,510.64-.58,43.53,14.42,55.09,55.69,54.24,110.47-2.27,221.09-3.2,331.5.28a774.29,774.29,0,0,1,165.29,23c121.58,30.94,211.94,141.82,213.28,267.6,2.9,272.31,3.93,544.72-.22,817-2.42,158.89-142.4,287.49-306.38,290.06q-201.71,3.15-403.48-.19c-41.71-.66-55.76,11.41-55.52,54.55,1.63,299.55,1.06,599.12.69,898.68-.24,188.06-136.65,324.57-325.76,324.78q-692,.8-1384.08,0c-179.1-.21-322.55-133.64-325.23-299.27-.66-40.66,10-73.27,55.61-76.11,44.51-2.77,61.56,26,66.33,67.25,13.64,118.12,89.61,186.35,208.74,186.47q686.94.72,1373.88.07c127.13-.11,208.05-80.72,208.76-206.89.7-126-1.7-252,1.21-377.86,1.07-46.42-12.13-60.87-59.78-60.64q-559.26,2.8-1118.54.72c-125.72-.29-251.42-5.43-377.13-6-67.95-.33-135.91,5.23-203.88,6.09-27.7.35-34.92,13-34.43,37.71.91,45.94.65,91.91.11,137.86-.54,46.77-26,78.87-61.59,79.09-37.73.24-59.65-27-59.69-78.37Q2,2311.11,2.21,1639.61ZM1916.35,892.15V832.49c0-160-5.58-320.32,1.65-480,6.58-145.5-98.76-233.23-230.27-230.64-241.71,4.78-483.59.52-725.4.51q-306.51,0-613,1.1C201.6,124,125,199.91,124,345.83c-.24,35.75,2.34,71.72-.76,107.21C119.33,498.25,133,515.6,182,514.65c157.63-3,315.34-1.11,473-1.11q454.68,0,909.36.05c13.6,0,32-4.59,39.87,2.36,19.66,17.37,44.67,38.31,48.84,61.22,5.48,30.08-17.16,54-52.23,56.18-18.67,1.18-37.44,1.08-56.16,1.08-452.61.05-905.21.69-1357.81-.9-47.68-.16-65.37,11.09-64.25,62,3.25,147.81,1.17,295.73,1.17,443.61q0,740.61-.79,1481.24c-.12,45.45,6.68,67.26,60.09,65.93,146.12-3.64,292.39-1.31,438.6-1.31,412.11,0,824.22-.54,1236.32.82,42.84.14,61.1-8.9,59.32-56.16-3.52-93.51-3-187.3-.17-280.86,1.33-43.37-14.17-54.56-55.68-54.21-211.15,1.75-422.32,1.11-633.48.65-200.42-.43-332-132.64-332.34-334-.39-238.33,1.58-476.68-.45-715-1.84-215.83,126.78-349.5,342.84-350,202.65-.49,405.3,0,608-.29C1867.68,895.92,1889.31,893.67,1916.35,892.15Zm-60.28,126.15v1.13q-303.87,0-607.74,0c-158.3,0-231.59,72.76-231.76,230.52q-.36,344.63-.06,689.25c0,160.23,74.08,234.65,234,235q270.68.54,541.34.6c228.09,0,456.18.79,684.26-1,113.47-.9,202.72-73.09,204.15-173.34q5.74-403.28.49-806.67c-1.11-95-94.6-175.88-186.5-175.63C2281.51,1018.7,2068.79,1018.3,1856.07,1018.3Z"/><path class="cls-1" d="M1020.8,380.35c-59.59,0-119.2.47-178.79-.17-40.23-.43-71.69-14.7-71.83-60.93s31.58-61.33,71.51-61.6q181.34-1.23,362.69-.1c39.4.22,66,18.88,66.44,61,.46,42.94-27.25,60.41-66.13,61.17-61.27,1.2-122.59.32-183.89.32Z"/><path class="cls-2" d="M1580.9,1598.2c0-76.58-.22-153.16.06-229.74.31-85,71.56-128.41,146.27-89.23q220.17,115.45,440.14,231.3c36.49,19.2,61.77,45.6,59.91,90.76-1.42,34.49-16.69,61.33-46,77q-232,123.83-465.33,245.21c-63.15,32.65-134.17-15-134.68-88.27-.55-79-.13-158-.13-237Zm65.7.12h-.09q0,116,0,232.09c.06,32.74,20.62,45.24,49,30.3,149.34-78.55,298.8-156.85,447.74-236.14,8.13-4.33,16.36-16.67,16.54-25.45s-7.66-21.57-15.61-25.81q-220.39-117.58-441.78-233.26c-38.11-20-55.85-9.14-55.88,33.39Q1646.55,1485.88,1646.6,1598.32Z"/><path class="cls-1" d="M1144.93,3130.57c-1.06,98.45-79.86,174.87-179.14,173.74-97.7-1.11-175.5-81-174.53-179.29,1-97.2,81.42-174.8,180-173.59S1146,3031.19,1144.93,3130.57Zm-261.49-2.28c.32,45.32,38.23,84.05,83.16,84.95,46.69.94,87.29-39.19,87.16-86.14-.12-44.7-38.58-84.11-83.26-85.32C924.51,3040.54,883.11,3081.68,883.44,3128.29Z"/></g></g></svg>